<?xml version="1.0" encoding="utf-8"?>
<!-- Generator: Adobe Illustrator 16.0.0, SVG Export Plug-In . SVG Version: 6.00 Build 0)  -->
<!DOCTYPE svg PUBLIC "-//W3C//DTD SVG 1.1//EN" "http://www.w3.org/Graphics/SVG/1.1/DTD/svg11.dtd">
<svg version="1.1" id="Layer_1" xmlns="http://www.w3.org/2000/svg" xmlns:xlink="http://www.w3.org/1999/xlink" x="0px" y="0px"
	 width="360px" height="119.333px" viewBox="0 0 360 119.333" enable-background="new 0 0 360 119.333" xml:space="preserve">
<path fill="#FFFFFF" d="M14.382,102.381h5.208l12.111-29.432h34.377l12.24,29.432h14.844L56.311,13.309h-4.558L14.382,102.381z
	 M33.653,68.261l15.105-36.718l15.364,36.718H33.653z M95.479,18.389h29.82v83.992h13.673V18.389h29.822v-4.56H95.479V18.389z
	 M225.241,103.683c25.134,0,43.754-19.535,43.754-45.707c0-25.916-18.62-45.446-43.754-45.446c-25.26,0-43.75,19.531-43.75,45.446
	C181.491,84.147,199.981,103.683,225.241,103.683 M229.799,97.825c-20.834,0-34.639-23.833-34.639-49.486
	c0-18.619,9.507-30.08,25.914-30.08c20.444,0,34.379,24.221,34.379,48.701C255.453,86.233,246.08,97.825,229.799,97.825
	 M293.791,102.381h13.671V59.279h30.343v-4.691h-30.343V18.389h38.157v-4.56h-51.829V102.381z"/>
</svg>
